<svg width="59" height="59" viewBox="0 0 59 59" fill="none" xmlns="http://www.w3.org/2000/svg">
<path d="M29.5001 1C39.993 1 49.6373 6.76576 54.6045 16.0085C59.5717 25.2513 59.0583 36.4759 53.2681 45.2267L29.5001 29.5V1Z" fill="#666630"/>
<path d="M7.01193 47.0079C0.323585 38.4169 -0.885862 26.7661 3.89528 16.9845C8.67643 7.20295 18.6127 1 29.5002 1V29.5L7.01193 47.0079Z" fill="white"/>
<path d="M53.2681 45.2267C48.2046 52.8793 39.7661 57.6258 30.5967 57.9788C21.4273 58.3319 12.6489 54.2485 7.01181 47.0079L29.5001 29.5L53.2681 45.2267Z" fill="#666630"/>
<path d="M29.5001 29.5V1C39.993 1 49.6373 6.76576 54.6045 16.0085C59.5717 25.2513 59.0583 36.4759 53.2681 45.2267" stroke="white" stroke-miterlimit="10" stroke-linecap="round" stroke-linejoin="round"/>
<path d="M29.5001 29.5L53.2681 45.2267C48.2046 52.8793 39.7661 57.6258 30.5967 57.9788C21.4273 58.3319 12.6489 54.2485 7.01181 47.0079" stroke="white" stroke-miterlimit="10" stroke-linecap="round" stroke-linejoin="round"/>
<path d="M29.5002 29.5L7.01193 47.0079C0.323585 38.4169 -0.885862 26.7661 3.89528 16.9845C8.67643 7.20295 18.6127 1 29.5002 1" stroke="white" stroke-miterlimit="10" stroke-linecap="round" stroke-linejoin="round"/>
</svg>
